<?xml version="1.0" standalone="no"?>
<!DOCTYPE svg PUBLIC "-//W3C//DTD SVG 20010904//EN"
 "http://www.w3.org/TR/2001/REC-SVG-20010904/DTD/svg10.dtd">
<svg version="1.0" xmlns="http://www.w3.org/2000/svg"
 width="1890.000000pt" height="1417.000000pt" viewBox="0 0 1890.000000 1417.000000"
 preserveAspectRatio="xMidYMid meet">
<metadata>
Created by potrace 1.16, written by Peter Selinger 2001-2019
</metadata>
<g transform="translate(0.000000,1417.000000) scale(0.100000,-0.100000)"
fill="#000000" stroke="none">
<path d="M8780 14160 c-718 -54 -1411 -210 -2065 -465 -1638 -639 -2986 -1868
-3772 -3438 -323 -646 -541 -1316 -657 -2022 -16 -100 -50 -363 -67 -525 -17
-163 -23 -893 -10 -1098 101 -1523 687 -2959 1688 -4136 153 -179 448 -484
622 -641 1096 -988 2436 -1606 3871 -1784 308 -39 375 -43 777 -48 616 -8 967
22 1513 129 1688 331 3232 1306 4279 2703 458 610 801 1260 1043 1975 185 549
288 1035 350 1665 18 179 18 1043 0 1220 -73 733 -206 1307 -449 1939 -473
1233 -1302 2326 -2368 3126 -808 606 -1738 1033 -2716 1249 -290 64 -539 103
-909 142 -130 14 -974 20 -1130 9z m885 -1091 c177 -11 494 -47 515 -59 12 -8
12 -9 1 -10 -52 -1 -622 -252 -901 -397 -1767 -918 -3069 -2300 -3785 -4018
-82 -198 -105 -282 -105 -399 0 -111 22 -167 79 -195 40 -20 236 -59 461 -91
80 -11 155 -22 168 -25 12 -3 22 -2 22 3 0 4 -31 39 -68 77 -125 128 -166 256
-122 385 48 145 260 519 468 825 865 1276 2118 2324 3532 2952 461 205 1007
393 1476 508 l111 27 86 -36 c512 -212 1037 -529 1486 -896 l114 -94 -109 -18
c-627 -104 -1401 -486 -2133 -1051 -40 -31 -77 -57 -81 -57 -5 0 -16 7 -25 16
-35 36 -48 80 -56 194 -4 63 -12 129 -17 145 -26 84 -89 167 -151 200 l-29 15
-414 -443 c-227 -243 -445 -476 -484 -517 -38 -41 -137 -147 -220 -235 -400
-429 -537 -575 -540 -575 -20 0 191 413 301 588 285 454 708 955 1138 1346 48
44 87 83 87 88 0 24 -403 -203 -630 -355 -319 -213 -529 -384 -780 -636 -261
-262 -423 -478 -581 -771 -294 -548 -424 -769 -555 -944 -108 -143 -270 -302
-389 -381 -155 -103 -407 -215 -632 -282 -35 -10 -63 -21 -63 -25 0 -22 231
-42 485 -42 375 1 628 44 909 155 l99 39 66 -24 c329 -122 688 -138 1031 -45
208 56 332 114 790 373 728 411 1257 644 1810 796 462 127 839 180 1275 180
534 0 999 -84 1509 -273 160 -60 142 -40 201 -233 210 -689 294 -1388 255
-2114 -6 -107 -13 -203 -16 -214 -5 -16 -14 -10 -63 36 -384 373 -872 665
-1296 778 -172 46 -416 83 -414 63 0 -4 44 -29 97 -55 281 -135 611 -399 843
-673 260 -307 445 -641 579 -1044 l57 -173 -34 -117 c-218 -730 -604 -1450
-1103 -2061 -112 -136 -105 -141 -109 100 -2 181 -25 551 -47 765 -84 821
-251 1457 -521 1989 -146 285 -308 512 -509 712 -384 382 -836 585 -1459 656
-185 21 -665 15 -880 -10 -629 -76 -1262 -254 -1751 -493 -188 -92 -254 -144
-254 -203 0 -38 27 -66 85 -87 l33 -12 -112 -86 c-722 -553 -1331 -1178 -1718
-1762 -219 -332 -385 -664 -461 -927 l-24 -83 -111 124 c-244 268 -409 522
-547 837 -235 537 -307 1193 -204 1865 40 264 111 543 208 814 22 63 39 116
38 118 -5 4 -97 -120 -164 -222 -767 -1156 -790 -2324 -68 -3435 200 -309 501
-651 799 -908 106 -92 248 -202 259 -202 4 0 18 39 32 88 533 1792 1483 3057
2750 3663 408 195 795 306 1285 370 577 75 1217 -98 1650 -446 390 -313 640
-797 715 -1380 31 -243 37 -348 40 -715 4 -468 -10 -690 -76 -1145 -65 -454
-238 -1196 -287 -1233 -66 -51 -481 -285 -602 -339 -25 -12 -88 -41 -141 -66
l-97 -45 73 151 c226 474 385 979 464 1477 50 314 56 398 55 795 0 342 -2 397
-23 544 -12 90 -29 186 -36 215 -7 28 -12 53 -10 56 2 3 -2 10 -9 15 -8 8 -11
-33 -13 -165 -8 -845 -368 -1692 -1069 -2516 -247 -291 -669 -691 -987 -938
l-109 -84 -116 -11 c-65 -6 -137 -14 -162 -16 -25 -3 -137 -8 -250 -11 l-205
-6 140 92 c314 208 532 387 810 665 396 395 693 796 973 1310 104 191 251 519
239 532 -2 1 -53 -64 -114 -145 -300 -398 -623 -734 -980 -1018 -638 -509
-1437 -862 -2237 -989 -244 -39 -440 -56 -681 -62 l-250 -5 -145 60 c-776 319
-1422 752 -2007 1343 -543 551 -907 1087 -1245 1839 -140 311 -296 809 -372
1190 -248 1246 -90 2590 435 3699 33 68 59 125 59 128 0 2 38 76 86 164 943
1765 2658 2931 4643 3154 287 33 723 42 1036 24z m4199 -2103 c55 -35 354
-438 507 -681 78 -124 240 -408 235 -412 -2 -2 -15 1 -29 6 -57 22 -384 82
-553 103 -234 28 -680 30 -909 5 -457 -51 -892 -163 -1304 -334 -285 -119
-650 -314 -898 -481 -51 -34 -93 -59 -93 -56 0 22 167 270 281 417 139 180
404 449 584 592 88 71 300 215 315 215 6 0 8 5 4 11 -19 32 -303 -18 -494 -86
-247 -89 -549 -267 -824 -485 l-92 -74 -13 -71 c-46 -248 -131 -464 -235 -597
-50 -63 -254 -239 -422 -364 -348 -259 -662 -385 -999 -401 -111 -5 -299 8
-313 22 -9 9 47 112 123 225 257 382 772 857 1483 1368 l184 132 36 -16 c52
-21 85 -58 97 -105 l10 -41 71 60 c568 475 1361 854 2084 996 315 61 479 75
847 72 250 -3 296 -6 317 -20z"/>
<path d="M6055 7548 c-128 -142 -254 -367 -294 -527 -21 -85 -27 -229 -12
-296 l7 -30 49 70 c245 342 380 494 462 518 42 12 48 18 51 43 2 20 -10 47
-37 88 -42 63 -151 194 -163 195 -3 1 -32 -27 -63 -61z"/>
</g>
</svg>
